<svg xmlns="http://www.w3.org/2000/svg" width="38.964" height="32.469" viewBox="0 0 38.964 32.469"><defs><style>.a{fill:#fff;}</style></defs><path class="a" d="M48.964,33.545c-1.075-.446-2.16-.837-3.247-1.205V16.668H42.47v3.247H16.494V16.668H13.247V32.342c-1.094.369-2.181.761-3.247,1.2h0v15.59h3.247v-4.87H45.716v4.87h3.247V33.547h0ZM42.47,31.364a50.594,50.594,0,0,0-11.365-1.673V23.162H42.47Zm-25.976-8.2H27.858V29.7A50.9,50.9,0,0,0,16.494,31.36ZM13.247,41.019V35.771a47.3,47.3,0,0,1,32.469,0v5.247Z" transform="translate(-10 -16.668)"/></svg>