<svg xmlns="http://www.w3.org/2000/svg" width="26.666" height="32" viewBox="0 0 26.666 32"><defs><style>.a{fill:#fff;}</style></defs><path class="a" d="M36.143,12.5a5.335,5.335,0,0,0-7.542,0l-.942.942-1.886-1.885a5.333,5.333,0,0,0-9.1,3.77V42h2.666V15.333a2.667,2.667,0,0,1,4.552-1.885l1.885,1.885-.943.943h0a5.336,5.336,0,0,0,0,7.542L26.715,25.7,38.028,14.391Zm-9.428,9.427a2.667,2.667,0,0,1,0-3.77l3.771-3.772a2.669,2.669,0,0,1,3.772,0l-7.543,7.543Z" transform="translate(-16.669 -10)"/><rect class="a" width="2.666" height="6.171" transform="matrix(-0.707, 0.707, -0.707, -0.707, 26.666, 11.583)"/><rect class="a" width="2.666" height="6.171" transform="translate(22.895 15.354) rotate(135)"/><rect class="a" width="2.666" height="6.172" transform="matrix(-0.707, 0.707, -0.707, -0.707, 19.124, 19.127)"/></svg>