<svg xmlns="http://www.w3.org/2000/svg" width="31.5" height="31.5" viewBox="0 0 31.5 31.5"><defs><style>.a{fill:#fff;}</style></defs><path class="a" d="M28.125,2.25H3.375A3.376,3.376,0,0,0,0,5.625v24.75A3.376,3.376,0,0,0,3.375,33.75h24.75A3.376,3.376,0,0,0,31.5,30.375V5.625A3.376,3.376,0,0,0,28.125,2.25ZM16.875,22.5H13.5v3.375A1.128,1.128,0,0,1,12.375,27h-2.25A1.128,1.128,0,0,1,9,25.875V10.125A1.128,1.128,0,0,1,10.125,9h6.75a6.75,6.75,0,0,1,0,13.5Zm0-9H13.5V18h3.375a2.25,2.25,0,0,0,0-4.5Z" transform="translate(0 -2.25)"/></svg>