<svg xmlns="http://www.w3.org/2000/svg" width="32" height="32" viewBox="0 0 32 32"><defs><style>.a{fill:#fff;}</style></defs><path class="a" d="M6.659,958.363A.728.728,0,0,0,6,959.09v4.363a.727.727,0,0,0,.727.727H8.545v7.273H6.727a.727.727,0,0,0-.727.727v4.364a.727.727,0,0,0,.727.727H8.545v7.273H6.727a.727.727,0,0,0-.727.727v4.364a.727.727,0,0,0,.727.727h4.364a.727.727,0,0,0,.727-.727V988.18h7.273v1.455a.727.727,0,0,0,.727.727h4.364a.727.727,0,0,0,.727-.727V988.18h7.273v1.455a.727.727,0,0,0,.727.727h4.364a.727.727,0,0,0,.727-.727v-4.364a.727.727,0,0,0-.727-.727H35.455v-7.273h1.818a.727.727,0,0,0,.727-.727v-4.364a.727.727,0,0,0-.727-.727H35.455v-7.273h1.818a.727.727,0,0,0,.727-.727V959.09a.728.728,0,0,0-.659-.727H32.909a.728.728,0,0,0-.727.727v1.454H24.909V959.09a.728.728,0,0,0-.727-.727H19.75a.728.728,0,0,0-.659.727v1.454H11.818V959.09a.728.728,0,0,0-.727-.727H6.659Zm.8,1.455h2.909v2.909H7.455Zm13.091,0h2.909v2.909H20.545Zm13.091,0h2.909v2.909H33.636ZM11.818,962h7.273v1.454a.727.727,0,0,0,.727.727h4.364a.727.727,0,0,0,.727-.727V962h7.273v1.454a.727.727,0,0,0,.727.727H34v7.273H32.909a.727.727,0,0,0-.727.727v4.364a.727.727,0,0,0,.727.727H34v7.273H32.909a.727.727,0,0,0-.727.727v1.455H24.909v-1.454a.727.727,0,0,0-.727-.727H19.818a.727.727,0,0,0-.727.727v1.455H11.818v-1.454a.727.727,0,0,0-.727-.727H10v-7.273h1.091a.727.727,0,0,0,.727-.727v-4.364a.727.727,0,0,0-.727-.727H10v-7.273h1.091a.728.728,0,0,0,.727-.727ZM7.455,972.908h2.909v2.909H7.455Zm26.182,0h2.909v2.909H33.636ZM7.455,986h2.909v2.909H7.455Zm13.091,0h2.909v2.909H20.545Zm13.091,0h2.909v2.909H33.636Z" transform="translate(-6 -958.362)"/></svg>