<svg xmlns="http://www.w3.org/2000/svg" width="32" height="31.23" viewBox="0 0 32 31.23"><defs><style>.a{fill:#fff;}</style></defs><g transform="translate(0 -6.162)"><g transform="translate(1.247 18.33)"><g transform="translate(0 0)"><path class="a" d="M28.838,211.251H21.1v-9.82a.578.578,0,1,0-1.155,0v10.4a.578.578,0,0,0,.578.578h.173v6.931a.578.578,0,1,0,1.155,0V215h5.66v4.332a.578.578,0,1,0,1.155,0v-6.931h.173a.578.578,0,0,0,0-1.155Zm-1.329,2.6h-5.66v-1.443h5.66v1.443Z" transform="translate(-19.943 -200.853)"/></g></g><g transform="translate(21.281 18.33)"><g transform="translate(0 0)"><path class="a" d="M349.386,200.853a.578.578,0,0,0-.578.578v9.82h-7.741a.578.578,0,0,0,0,1.155h.173v6.931a.578.578,0,0,0,1.155,0V215h5.661v4.332a.578.578,0,1,0,1.155,0v-6.931h.173a.578.578,0,0,0,.578-.578v-10.4A.578.578,0,0,0,349.386,200.853Zm-1.329,13H342.4v-1.443h5.661v1.443Z" transform="translate(-340.49 -200.853)"/></g></g><g transform="translate(6.769 14.827)"><g transform="translate(0 0)"><path class="a" d="M126.183,153.191h-8.076v-7.817a.578.578,0,1,0-1.155,0v7.817h-8.076a.578.578,0,0,0,0,1.155h.567v1.426a.578.578,0,0,0,.578.578h15.019a.578.578,0,0,0,.578-.578v-1.426h.567a.578.578,0,0,0,0-1.155Zm-1.722,2H110.6v-.849h13.863Z" transform="translate(-108.298 -144.797)"/></g></g><g transform="translate(12.776 27.15)"><path class="a" d="M210.284,351.063h-2.069v-8.508a.578.578,0,1,0-1.155,0v8.508h-2.069a.578.578,0,1,0,0,1.155h5.293a.578.578,0,1,0,0-1.155Z" transform="translate(-204.413 -341.977)"/></g><g transform="translate(0 6.162)"><g transform="translate(0)"><path class="a" d="M31.787,13.031a24.639,24.639,0,0,0-15.21-5.518V6.74a.578.578,0,0,0-1.155,0v.773A24.64,24.64,0,0,0,.213,13.031a.578.578,0,0,0,.365,1.026H31.422a.578.578,0,0,0,.365-1.026ZM2.3,12.9a23.513,23.513,0,0,1,9.4-3.885A13.6,13.6,0,0,0,8.337,12.9Zm7.4,0c1.819-2.74,3.984-4.236,6.168-4.236h.256c2.183,0,4.349,1.5,6.168,4.236Zm13.96,0A13.6,13.6,0,0,0,20.3,9.016,23.513,23.513,0,0,1,29.7,12.9Z" transform="translate(0 -6.162)"/></g></g></g></svg>