<svg xmlns="http://www.w3.org/2000/svg" width="20" height="20" viewBox="0 0 20 20"><defs><style>.a{fill:#4caf50;}.b{fill:#fafafa;}</style></defs><path class="a" d="M10,0H10A9.994,9.994,0,0,0,1.9,15.861L.658,19.576,4.5,18.347A10,10,0,1,0,10,0Z"/><path class="b" d="M118.9,126.635a2.822,2.822,0,0,1-1.963,1.411c-.522.111-1.205.2-3.5-.753a12.527,12.527,0,0,1-4.979-4.4,5.711,5.711,0,0,1-1.187-3.016,3.192,3.192,0,0,1,1.022-2.434,1.453,1.453,0,0,1,1.022-.359c.124,0,.235.006.335.011.294.013.441.03.635.494.241.581.829,2.016.9,2.164a.6.6,0,0,1,.042.541,1.728,1.728,0,0,1-.324.459c-.147.17-.288.3-.435.482-.135.159-.287.329-.118.623a8.876,8.876,0,0,0,1.623,2.016,7.352,7.352,0,0,0,2.345,1.446.632.632,0,0,0,.705-.111,12.1,12.1,0,0,0,.781-1.035.558.558,0,0,1,.717-.217c.27.094,1.7.8,1.993.946s.487.217.559.341A2.49,2.49,0,0,1,118.9,126.635Z" transform="translate(-103.074 -112.514)"/></svg>